<?xml version="1.0" encoding="UTF-8" standalone="no"?>
<!-- Generator: Adobe Illustrator 13.0.2, SVG Export Plug-In . SVG Version: 6.00 Build 14948)  -->

<svg
   xmlns:dc="http://purl.org/dc/elements/1.1/"
   xmlns:cc="http://creativecommons.org/ns#"
   xmlns:rdf="http://www.w3.org/1999/02/22-rdf-syntax-ns#"
   xmlns:svg="http://www.w3.org/2000/svg"
   xmlns="http://www.w3.org/2000/svg"
   xmlns:sodipodi="http://sodipodi.sourceforge.net/DTD/sodipodi-0.dtd"
   xmlns:inkscape="http://www.inkscape.org/namespaces/inkscape"
   version="1.1"
   id="Layer_1"
   x="0px"
   y="0px"
   width="88px"
   height="31px"
   viewBox="0.995 1.495 88 31"
   enable-background="new 0.995 1.495 88 31"
   xml:space="preserve"
   inkscape:version="0.91 r13725"
   sodipodi:docname="kopimi-88x31.svg"><metadata
   id="metadata8508"><rdf:RDF><cc:Work
       rdf:about=""><dc:format>image/svg+xml</dc:format><dc:type
         rdf:resource="http://purl.org/dc/dcmitype/StillImage" /><dc:title></dc:title><cc:license
         rdf:resource="http://kopimi.com/" /></cc:Work></rdf:RDF></metadata><defs
   id="defs8506">
	
	
	
	
	
	

		
		
		
		
		
		
		
		
		
		
		
		
	</defs><sodipodi:namedview
   pagecolor="#ffffff"
   bordercolor="#666666"
   borderopacity="1"
   objecttolerance="10"
   gridtolerance="10"
   guidetolerance="10"
   inkscape:pageopacity="0"
   inkscape:pageshadow="2"
   inkscape:window-width="1280"
   inkscape:window-height="962"
   id="namedview8504"
   showgrid="false"
   inkscape:zoom="8.7272727"
   inkscape:cx="39.201414"
   inkscape:cy="4.7201175"
   inkscape:window-x="-8"
   inkscape:window-y="-8"
   inkscape:window-maximized="1"
   inkscape:current-layer="Layer_1" />
<path
   style="fill:#ffffff"
   inkscape:connector-curvature="0"
   id="path8466"
   d="M 2.803,1.481 85.928,1.63 c 1.162,0 2.199,-0.173 2.199,2.333 l -0.103,27.554 -87.319,0 0,-27.656 c 0,-1.235 0.118,-2.38 2.098,-2.38 z" /><g
   id="g8468">
		<ellipse
   style="fill:#ffffff"
   id="ellipse8470"
   ry="11.172"
   rx="11.101"
   cy="16.500999"
   cx="14.887" />
	</g><path
   inkscape:connector-curvature="0"
   id="path8472"
   d="m 24.271,5.06 c 3.484,2.592 5.754,6.744 5.755,11.44 -0.001,4.272 -1.88,8.095 -4.842,10.703 l 62.853,0 0,-22.143 -63.766,0 z" /><path
   inkscape:connector-curvature="0"
   id="path8502"
   d="M 86.853,1 2.147,1 C 1.239,1 0.5,1.743 0.5,2.657 l 0,28.97 C 0.5,31.833 0.667,32 0.872,32 l 87.256,0 c 0.205,0 0.372,-0.167 0.372,-0.373 l 0,-28.97 C 88.5,1.743 87.761,1 86.853,1 Z m -84.706,0.749 84.704,0 c 0.498,0 0.903,0.407 0.903,0.908 0,0 0,20.122 0,28.557 l -86.509,0 0,-8.424 c 0,-8.436 0,-20.133 0,-20.133 0,-0.501 0.405,-0.908 0.902,-0.908 z" />
<g
   id="g9062"
   transform="matrix(0.09139296,0,0,0.09375096,3.4916767,4.3278341)"><circle
     id="circle9052"
     r="119.428"
     cy="128"
     cx="128"
     style="fill:#ffffff;stroke:#000000;stroke-width:16.50230026" /><path
     id="path9054"
     d="m 540.624,256.347 -23.924,17.089 -106.997,-75.713 0,-64.408 23.922,-16.825 38.384,26.815 0,-53.8924 23.924,-17.0894 24.186,17.0894 0,53.8924 17.352,-12.094 20.507,14.461 20.767,-14.723 24.186,17.089 0,64.409 -24.186,16.825 -20.767,-14.724 -17.352,12.358 z m -124.346,-123.034 17.351,12.357 17.614,-12.357 -17.614,-12.356 z m 20.767,14.723 17.351,12.356 17.614,-12.356 -17.351,-12.358 z m 20.506,14.722 17.615,12.355 17.614,-12.355 -17.614,-12.356 z m 38.382,-85.703 -17.614,12.356 17.614,12.353 17.612,-12.353 z m 0,29.443 -17.614,12.356 17.614,12.355 17.351,-12.618 z m 0,29.18 -17.614,12.358 17.614,12.356 17.351,-12.356 z m -17.612,41.801 17.614,12.094 17.351,-12.356 -17.351,-12.094 z m 20.767,14.459 17.612,12.356 17.352,-12.356 -17.352,-12.354 z m 38.381,-56.26 -17.614,12.358 17.352,12.356 17.614,-12.356 z m 41.276,0 -17.354,12.358 17.354,12.356 17.612,-12.356 z"
     transform="matrix(0.97,0,0,0.97,-363,-38)"
     inkscape:connector-curvature="0" /></g><g
   style="font-style:normal;font-variant:normal;font-weight:bold;font-stretch:normal;font-size:8.93906021px;line-height:125%;font-family:Arial;-inkscape-font-specification:'Arial, Bold';text-align:start;letter-spacing:0px;word-spacing:0px;writing-mode:lr-tb;text-anchor:start;fill:#ffffff;fill-opacity:1;stroke:none;stroke-width:1px;stroke-linecap:butt;stroke-linejoin:miter;stroke-opacity:1"
   id="text9085"><path
     d="m 33.905001,14.77188 0,-6.3987607 1.291973,0 0,2.8414687 2.610136,-2.8414687 1.737181,0 -2.409356,2.4922867 2.540299,3.906474 -1.671709,0 -1.759004,-3.002965 -1.047547,1.06937 0,1.933595 -1.291973,0 z"
     style=""
     id="path10535" /><path
     d="m 40.085523,11.611783 q 0,-0.97771 0.29244,-1.6411559 0.218239,-0.4888548 0.59361,-0.8773199 0.379735,-0.388465 0.829307,-0.5761503 0.597974,-0.253157 1.379269,-0.253157 1.414187,0 2.260954,0.8773199 0.851131,0.8773202 0.851131,2.4399092 0,1.549496 -0.842402,2.426815 -0.842401,0.872956 -2.252224,0.872956 -1.427281,0 -2.269683,-0.868591 -0.842402,-0.872955 -0.842402,-2.400626 z m 1.331257,-0.04365 q 0,1.086829 0.501949,1.649885 0.501949,0.558691 1.274514,0.558691 0.772566,0 1.265785,-0.554326 0.497585,-0.558691 0.497585,-1.671709 0,-1.099924 -0.48449,-1.6411558 -0.480126,-0.5412321 -1.27888,-0.5412321 -0.798754,0 -1.287608,0.5499617 -0.488855,0.5455972 -0.488855,1.6498852 z"
     style=""
     id="path10537" /><path
     d="m 47.296132,14.77188 0,-6.3987607 2.073268,0 q 1.17849,0 1.536401,0.096025 0.549962,0.1440376 0.920968,0.6285277 0.371006,0.4801253 0.371006,1.243961 0,0.589245 -0.213874,0.990804 -0.213874,0.401559 -0.545597,0.632893 -0.327358,0.226968 -0.667811,0.301169 -0.462666,0.09166 -1.339986,0.09166 l -0.842401,0 0,2.413721 -1.291974,0 z m 1.291974,-5.3162964 0,1.8157464 0.707093,0 q 0.763836,0 1.021358,-0.10039 0.257522,-0.100389 0.401559,-0.314263 0.148402,-0.213874 0.148402,-0.497585 0,-0.349182 -0.205144,-0.5761502 Q 50.45623,9.5559734 50.141966,9.4992314 49.910633,9.4555836 49.212269,9.4555836 l -0.624163,0 z"
     style=""
     id="path10539" /><path
     d="m 53.227863,14.77188 0,-6.3987607 1.291974,0 0,6.3987607 -1.291974,0 z"
     style=""
     id="path10541" /><path
     d="m 55.728878,14.77188 0,-6.3987607 1.933595,0 1.161031,4.3647757 1.147936,-4.3647757 1.93796,0 0,6.3987607 -1.200313,0 0,-5.0369508 -1.27015,5.0369508 -1.243961,0 -1.265785,-5.0369508 0,5.0369508 -1.200313,0 z"
     style=""
     id="path10543" /><path
     d="m 63.162092,14.77188 0,-6.3987607 1.291974,0 0,6.3987607 -1.291974,0 z"
     style=""
     id="path10545" /></g><g
   style="font-style:normal;font-variant:normal;font-weight:bold;font-stretch:normal;font-size:4.46725893px;line-height:125%;font-family:Arial;-inkscape-font-specification:'Arial, Bold';text-align:start;letter-spacing:0px;word-spacing:0px;writing-mode:lr-tb;text-anchor:start;fill:#ffffff;fill-opacity:1;stroke:none;stroke-width:1px;stroke-linecap:butt;stroke-linejoin:miter;stroke-opacity:1"
   id="text9101"><path
     d="m 33.90501,22.174788 0,-3.197755 0.628208,0 1.308768,2.135472 0,-2.135472 0.599851,0 0,3.197755 -0.647839,0 -1.289136,-2.085303 0,2.085303 -0.599852,0 z"
     style=""
     id="path10548" /><path
     d="m 36.995882,20.595542 q 0,-0.488607 0.146146,-0.820161 0.109064,-0.244303 0.296654,-0.438437 0.189771,-0.194134 0.414443,-0.287929 0.298835,-0.126514 0.689284,-0.126514 0.706734,0 1.129902,0.438437 0.42535,0.438437 0.42535,1.219335 0,0.774354 -0.420987,1.212791 -0.420987,0.436255 -1.12554,0.436255 -0.713278,0 -1.134265,-0.434074 -0.420987,-0.436256 -0.420987,-1.199703 z m 0.66529,-0.02181 q 0,0.543138 0.250847,0.824523 0.250847,0.279204 0.636934,0.279204 0.386086,0 0.632571,-0.277022 0.248665,-0.279204 0.248665,-0.83543 0,-0.549682 -0.242122,-0.820161 -0.23994,-0.270479 -0.639114,-0.270479 -0.399174,0 -0.643477,0.274842 -0.244304,0.272659 -0.244304,0.824523 z"
     style=""
     id="path10550" /><path
     d="m 41.840502,22.174788 0,-3.197755 1.358937,0 q 0.5126,0 0.743816,0.08725 0.233397,0.08507 0.372999,0.305379 0.139601,0.220309 0.139601,0.503875 0,0.359911 -0.211584,0.59549 -0.211584,0.233396 -0.63257,0.294472 0.209402,0.122152 0.344642,0.268297 0.13742,0.146146 0.368636,0.519145 l 0.390449,0.623846 -0.772173,0 -0.466794,-0.695828 q -0.248665,-0.372999 -0.340279,-0.468975 -0.09161,-0.09816 -0.194134,-0.133058 -0.10252,-0.03708 -0.325011,-0.03708 l -0.130876,0 0,1.334943 -0.645659,0 z m 0.645659,-1.845362 0.4777,0 q 0.464612,0 0.58022,-0.03926 0.115608,-0.03926 0.181046,-0.13524 0.06544,-0.09598 0.06544,-0.23994 0,-0.161415 -0.08725,-0.259572 -0.08507,-0.100339 -0.242122,-0.126515 -0.07853,-0.01091 -0.471156,-0.01091 l -0.503875,0 0,0.811436 z"
     style=""
     id="path10552" /><path
     d="m 45.046982,22.174788 0,-3.197755 0.645658,0 0,3.197755 -0.645658,0 z"
     style=""
     id="path10554" /><path
     d="m 47.793213,20.999078 0,-0.538776 1.391655,0 0,1.273867 q -0.202859,0.196315 -0.588945,0.346824 -0.383905,0.148326 -0.778716,0.148326 -0.501695,0 -0.874693,-0.209402 -0.372999,-0.211584 -0.560589,-0.602033 -0.18759,-0.39263 -0.18759,-0.85288 0,-0.499513 0.209403,-0.887781 0.209403,-0.388267 0.612939,-0.595489 0.307561,-0.159233 0.765629,-0.159233 0.595489,0 0.929225,0.250847 0.335917,0.248666 0.431893,0.689284 l -0.641296,0.11997 q -0.06762,-0.235578 -0.25521,-0.370817 -0.185408,-0.137421 -0.464612,-0.137421 -0.423168,0 -0.674015,0.268298 -0.248666,0.268297 -0.248666,0.796166 0,0.569314 0.253029,0.855062 0.253028,0.283566 0.663108,0.283566 0.202859,0 0.405718,-0.07853 0.20504,-0.08071 0.351186,-0.194134 l 0,-0.405718 -0.739453,0 z"
     style=""
     id="path10556" /><path
     d="m 49.780357,22.174788 0,-3.197755 0.645658,0 0,1.258598 1.265142,0 0,-1.258598 0.645659,0 0,3.197755 -0.645659,0 0,-1.3982 -1.265142,0 0,1.3982 -0.645658,0 z"
     style=""
     id="path10558" /><path
     d="m 53.72629,22.174788 0,-2.656798 -0.948856,0 0,-0.540957 2.54119,0 0,0.540957 -0.946675,0 0,2.656798 -0.645659,0 z"
     style=""
     id="path10560" /><path
     d="m 55.565109,21.134318 0.628208,-0.06108 q 0.05671,0.316285 0.229034,0.464612 0.174503,0.148327 0.468975,0.148327 0.311923,0 0.468975,-0.130877 0.159234,-0.133058 0.159234,-0.309741 0,-0.113427 -0.06762,-0.191953 -0.06544,-0.08071 -0.231216,-0.139602 -0.113426,-0.03926 -0.516963,-0.139601 -0.519144,-0.128696 -0.728547,-0.316286 -0.294472,-0.263935 -0.294472,-0.643477 0,-0.244303 0.13742,-0.455887 0.139602,-0.213766 0.399174,-0.325011 0.261754,-0.111245 0.63039,-0.111245 0.602033,0 0.90523,0.263935 0.305379,0.263934 0.320648,0.704553 l -0.645658,0.02836 q -0.04144,-0.246484 -0.178865,-0.353367 -0.135239,-0.109064 -0.407899,-0.109064 -0.281385,0 -0.440618,0.115608 -0.102521,0.07416 -0.102521,0.198496 0,0.113427 0.09598,0.194134 0.122151,0.10252 0.593308,0.213765 0.471156,0.111246 0.695827,0.231216 0.226853,0.117789 0.353368,0.325011 0.128695,0.20504 0.128695,0.508237 0,0.274842 -0.152689,0.514782 -0.15269,0.239941 -0.431894,0.35773 -0.279203,0.115608 -0.695828,0.115608 -0.606395,0 -0.931406,-0.279204 -0.32501,-0.281385 -0.388267,-0.817979 z"
     style=""
     id="path10562" /><path
     d="m 59.953842,22.174788 0,-3.197755 1.358936,0 q 0.512601,0 0.743816,0.08725 0.233397,0.08507 0.372999,0.305379 0.139602,0.220309 0.139602,0.503875 0,0.359911 -0.211584,0.59549 -0.211584,0.233396 -0.632571,0.294472 0.209403,0.122152 0.344642,0.268297 0.137421,0.146146 0.368636,0.519145 l 0.390449,0.623846 -0.772173,0 -0.466793,-0.695828 q -0.248666,-0.372999 -0.34028,-0.468975 -0.09161,-0.09816 -0.194134,-0.133058 -0.10252,-0.03708 -0.32501,-0.03708 l -0.130877,0 0,1.334943 -0.645658,0 z m 0.645658,-1.845362 0.4777,0 q 0.464613,0 0.58022,-0.03926 0.115608,-0.03926 0.181047,-0.13524 0.06544,-0.09598 0.06544,-0.23994 0,-0.161415 -0.08725,-0.259572 -0.08507,-0.100339 -0.242122,-0.126515 -0.07853,-0.01091 -0.471156,-0.01091 l -0.503876,0 0,0.811436 z"
     style=""
     id="path10564" /><path
     d="m 63.179953,22.174788 0,-3.197755 2.37105,0 0,0.540957 -1.725392,0 0,0.708916 1.605422,0 0,0.538775 -1.605422,0 0,0.870331 1.786468,0 0,0.538776 -2.432126,0 z"
     style=""
     id="path10566" /><path
     d="m 66.000347,21.134318 0.628208,-0.06108 q 0.05671,0.316285 0.229034,0.464612 0.174503,0.148327 0.468975,0.148327 0.311923,0 0.468975,-0.130877 0.159233,-0.133058 0.159233,-0.309741 0,-0.113427 -0.06762,-0.191953 -0.06544,-0.08071 -0.231216,-0.139602 -0.113426,-0.03926 -0.516963,-0.139601 -0.519144,-0.128696 -0.728547,-0.316286 -0.294473,-0.263935 -0.294473,-0.643477 0,-0.244303 0.137421,-0.455887 0.139602,-0.213766 0.399174,-0.325011 0.261753,-0.111245 0.63039,-0.111245 0.602033,0 0.90523,0.263935 0.305379,0.263934 0.320648,0.704553 l -0.645658,0.02836 q -0.04144,-0.246484 -0.178865,-0.353367 -0.135239,-0.109064 -0.407899,-0.109064 -0.281385,0 -0.440619,0.115608 -0.10252,0.07416 -0.10252,0.198496 0,0.113427 0.09598,0.194134 0.122151,0.10252 0.593307,0.213765 0.471157,0.111246 0.695828,0.231216 0.226853,0.117789 0.353368,0.325011 0.128695,0.20504 0.128695,0.508237 0,0.274842 -0.15269,0.514782 -0.152689,0.239941 -0.431893,0.35773 -0.279203,0.115608 -0.695828,0.115608 -0.606395,0 -0.931406,-0.279204 -0.32501,-0.281385 -0.388267,-0.817979 z"
     style=""
     id="path10568" /><path
     d="m 69.147932,22.174788 0,-3.197755 2.37105,0 0,0.540957 -1.725391,0 0,0.708916 1.605421,0 0,0.538775 -1.605421,0 0,0.870331 1.786467,0 0,0.538776 -2.432126,0 z"
     style=""
     id="path10570" /><path
     d="m 72.134103,22.174788 0,-3.197755 1.358937,0 q 0.5126,0 0.743816,0.08725 0.233397,0.08507 0.372999,0.305379 0.139602,0.220309 0.139602,0.503875 0,0.359911 -0.211585,0.59549 -0.211584,0.233396 -0.63257,0.294472 0.209402,0.122152 0.344642,0.268297 0.13742,0.146146 0.368636,0.519145 l 0.390449,0.623846 -0.772173,0 -0.466794,-0.695828 q -0.248665,-0.372999 -0.340279,-0.468975 -0.09161,-0.09816 -0.194134,-0.133058 -0.10252,-0.03708 -0.32501,-0.03708 l -0.130877,0 0,1.334943 -0.645659,0 z m 0.645659,-1.845362 0.4777,0 q 0.464612,0 0.58022,-0.03926 0.115608,-0.03926 0.181046,-0.13524 0.06544,-0.09598 0.06544,-0.23994 0,-0.161415 -0.08725,-0.259572 -0.08507,-0.100339 -0.242122,-0.126515 -0.07853,-0.01091 -0.471156,-0.01091 l -0.503875,0 0,0.811436 z"
     style=""
     id="path10572" /><path
     d="m 76.097485,22.174788 -1.14299,-3.197755 0.700191,0 0.809254,2.366687 0.783079,-2.366687 0.684922,0 -1.145172,3.197755 -0.689284,0 z"
     style=""
     id="path10574" /><path
     d="m 78.265677,22.174788 0,-3.197755 2.37105,0 0,0.540957 -1.725392,0 0,0.708916 1.605421,0 0,0.538775 -1.605421,0 0,0.870331 1.786468,0 0,0.538776 -2.432126,0 z"
     style=""
     id="path10576" /><path
     d="m 81.247485,18.977033 1.180072,0 q 0.399174,0 0.608577,0.06108 0.281385,0.08289 0.482062,0.294472 0.200678,0.211584 0.305379,0.519145 0.104702,0.305379 0.104702,0.754722 0,0.394812 -0.09816,0.680559 -0.11997,0.349005 -0.342461,0.564951 -0.167958,0.163596 -0.453706,0.25521 -0.213765,0.06762 -0.571495,0.06762 l -1.214972,0 0,-3.197755 z m 0.645659,0.540957 0,2.118022 0.482062,0 q 0.270479,0 0.390449,-0.03054 0.157052,-0.03926 0.259572,-0.133058 0.104702,-0.0938 0.17014,-0.307561 0.06544,-0.215946 0.06544,-0.586764 0,-0.370817 -0.06544,-0.569313 -0.06544,-0.198497 -0.183227,-0.309742 -0.117789,-0.111245 -0.298835,-0.150508 -0.13524,-0.03054 -0.530051,-0.03054 l -0.29011,0 z"
     style=""
     id="path10578" /></g></svg>