<?xml version="1.0" encoding="UTF-8" standalone="no"?>
<!-- Created with Inkscape (http://www.inkscape.org/) -->

<svg
   xmlns:dc="http://purl.org/dc/elements/1.1/"
   xmlns:cc="http://creativecommons.org/ns#"
   xmlns:rdf="http://www.w3.org/1999/02/22-rdf-syntax-ns#"
   xmlns:svg="http://www.w3.org/2000/svg"
   xmlns="http://www.w3.org/2000/svg"
   xmlns:sodipodi="http://sodipodi.sourceforge.net/DTD/sodipodi-0.dtd"
   xmlns:inkscape="http://www.inkscape.org/namespaces/inkscape"
   width="100"
   height="100"
   viewBox="0 0 99.999999 99.999997"
   id="svg6061"
   version="1.1"
   inkscape:version="0.91 r13725"
   inkscape:export-filename="/home/eduarda/git/neo-piratas/favicon.ico"
   inkscape:export-xdpi="14.4"
   inkscape:export-ydpi="14.4"
   sodipodi:docname="socialpirata.svg">
  <defs
     id="defs6063" />
  <sodipodi:namedview
     id="base"
     pagecolor="#ffffff"
     bordercolor="#666666"
     borderopacity="1.0"
     inkscape:pageopacity="0.0"
     inkscape:pageshadow="2"
     inkscape:zoom="3.959798"
     inkscape:cx="23.257614"
     inkscape:cy="51.313519"
     inkscape:document-units="px"
     inkscape:current-layer="layer1"
     showgrid="false"
     fit-margin-top="0"
     fit-margin-left="0"
     fit-margin-right="0"
     fit-margin-bottom="0"
     units="px"
     inkscape:window-width="1364"
     inkscape:window-height="693"
     inkscape:window-x="0"
     inkscape:window-y="0"
     inkscape:window-maximized="1" />
  <metadata
     id="metadata6066">
    <rdf:RDF>
      <cc:Work
         rdf:about="">
        <dc:format>image/svg+xml</dc:format>
        <dc:type
           rdf:resource="http://purl.org/dc/dcmitype/StillImage" />
        <dc:title></dc:title>
      </cc:Work>
    </rdf:RDF>
  </metadata>
  <g
     inkscape:label="Camada 1"
     inkscape:groupmode="layer"
     id="layer1"
     transform="translate(156.18919,-475.75297)"
     style="opacity:0.96">
    <path
       sodipodi:nodetypes="ccsc"
       inkscape:connector-curvature="0"
       id="path4639-7"
       d="m -86.993288,552.85146 c -3.73549,21.79036 -38.392562,21.90151 -38.392562,21.90151 0,0 21.20339,-6.56966 19.7507,-22.34174 -1.32705,-14.408 18.641862,0.44023 18.641862,0.44023 z"
       style="display:inline;opacity:1;fill:#522e91;fill-opacity:1;stroke:none"
       inkscape:export-xdpi="299.59372"
       inkscape:export-ydpi="299.59372" />
    <rect
       style="display:inline;opacity:1;fill:#522e91;fill-opacity:1;stroke:none"
       id="rect3328-0"
       width="89.521233"
       height="77.451447"
       x="-150.9502"
       y="476.54288"
       ry="12.913471"
       inkscape:export-xdpi="299.59372"
       inkscape:export-ydpi="299.59372" />
    <g
       transform="translate(-284.22806,196.32353)"
       id="g5180"
       style="display:inline;opacity:1"
       inkscape:export-xdpi="299.59372"
       inkscape:export-ydpi="299.59372">
      <path
         sodipodi:nodetypes="zsscsssz"
         inkscape:connector-curvature="0"
         id="path4516-2"
         d="m 190.48664,290.71733 c 1.37154,-1.22326 7.26383,5.94313 7.41057,8.73126 0.21596,4.10316 0.32474,11.56015 -11.88626,11.44603 -7.8508,-0.0734 -8.21766,-5.42952 -8.21766,-5.42952 0,0 -0.22012,-4.62244 4.03545,-4.62244 4.25557,0 2.85833,3.00825 6.23663,3.00825 5.06267,0 4.27343,-2.05348 4.40231,-4.69581 0.2935,-6.0165 -3.35257,-7.21451 -1.98104,-8.43777 z"
         style="fill:#ffffff;fill-opacity:1;stroke:none" />
      <path
         style="fill:#ffffff;fill-opacity:1;stroke:none"
         d="m 165.53905,290.71733 c -1.37153,-1.22326 -7.41057,4.62243 -7.41057,8.73126 0,4.10883 -0.32474,11.56015 11.88626,11.44603 7.8508,-0.0734 8.21766,-5.42952 8.21766,-5.42952 0,0 0.22012,-4.62244 -4.03545,-4.62244 -4.25558,0 -2.85832,3.00825 -6.23662,3.00825 -5.06267,0 -4.27343,-2.05348 -4.40232,-4.69581 -0.29349,-6.0165 3.35257,-7.21451 1.98104,-8.43777 z"
         id="path4611-5"
         inkscape:connector-curvature="0"
         sodipodi:nodetypes="zsscsssz" />
    </g>
    <circle
       r="22"
       cy="522.09998"
       cx="-106.18957"
       id="outside_1_"
       style="display:inline;fill:#ffffff"
       inkscape:export-xdpi="299.59372"
       inkscape:export-ydpi="299.59372" />
    <circle
       style="display:inline"
       id="circle5319"
       r="20.06403"
       cy="522.09973"
       cx="-106.18957"
       inkscape:export-xdpi="299.59372"
       inkscape:export-ydpi="299.59372" />
    <circle
       id="circle5321"
       r="17.952011"
       cy="522.16992"
       cx="-106.18957"
       style="display:inline;fill:#ffffff"
       inkscape:export-xdpi="299.59372"
       inkscape:export-ydpi="299.59372" />
    <path
       id="path5323"
       d="m -113.40937,526.02756 c 1.72835,-1.18881 4.69552,-2.62501 5.26802,-5.37126 1.15251,-5.5229 -2.31602,-7.81437 -5.26802,-8.53414 l 0,13.9054 z m -1.63936,1.77663 0,-15.93603 c -0.69948,-0.0449 -1.28297,0 -1.65007,0.11006 -0.10456,-0.23076 0.539,-0.5868 1.65007,-0.92807 l 0,-3.06801 1.63936,0 0,2.65133 c 5.90399,-1.23844 17.676523,-1.30322 17.739993,9.0304 0.0407,7.2952 -12.726043,6.18165 -16.426583,8.54933 -4.02655,2.56839 -2.21948,8.00415 -2.21948,8.00415 0,0 -2.43584,-5.09108 -0.73329,-8.41316 z"
       inkscape:connector-curvature="0"
       style="display:inline;fill:#010101"
       inkscape:export-xdpi="299.59372"
       inkscape:export-ydpi="299.59372" />
    <line
       id="line5325"
       y2="518.58038"
       x2="-105.36985"
       y1="518.58038"
       x1="-107.00928"
       style="display:inline;fill:none"
       inkscape:export-xdpi="299.59372"
       inkscape:export-ydpi="299.59372" />
  </g>
</svg>
