<?xml version="1.0" encoding="UTF-8" standalone="no"?>
<!-- Generator: Adobe Illustrator 17.0.0, SVG Export Plug-In . SVG Version: 6.00 Build 0)  -->

<svg
   xmlns:dc="http://purl.org/dc/elements/1.1/"
   xmlns:cc="http://creativecommons.org/ns#"
   xmlns:rdf="http://www.w3.org/1999/02/22-rdf-syntax-ns#"
   xmlns:svg="http://www.w3.org/2000/svg"
   xmlns="http://www.w3.org/2000/svg"
   xmlns:sodipodi="http://sodipodi.sourceforge.net/DTD/sodipodi-0.dtd"
   xmlns:inkscape="http://www.inkscape.org/namespaces/inkscape"
   version="1.1"
   id="Layer_1"
   x="0px"
   y="0px"
   width="234"
   height="390"
   viewBox="0 0 234 390.00001"
   enable-background="new 0 0 209.091 215.152"
   xml:space="preserve"
   inkscape:version="0.91 r13725"
   sodipodi:docname="partidopirata-feminista-01.svg"><metadata
     id="metadata4344"><rdf:RDF><cc:Work
         rdf:about=""><dc:format>image/svg+xml</dc:format><dc:type
           rdf:resource="http://purl.org/dc/dcmitype/StillImage" /><dc:title></dc:title><cc:license
           rdf:resource="http://creativecommons.org/publicdomain/zero/1.0/" /></cc:Work><cc:License
         rdf:about="http://creativecommons.org/publicdomain/zero/1.0/"><cc:permits
           rdf:resource="http://creativecommons.org/ns#Reproduction" /><cc:permits
           rdf:resource="http://creativecommons.org/ns#Distribution" /><cc:permits
           rdf:resource="http://creativecommons.org/ns#DerivativeWorks" /></cc:License></rdf:RDF></metadata><defs
     id="defs4342" /><sodipodi:namedview
     pagecolor="#ffffff"
     bordercolor="#666666"
     borderopacity="1"
     objecttolerance="10"
     gridtolerance="10"
     guidetolerance="10"
     inkscape:pageopacity="0"
     inkscape:pageshadow="2"
     inkscape:window-width="1280"
     inkscape:window-height="976"
     id="namedview4340"
     showgrid="false"
     inkscape:zoom="1"
     inkscape:cx="105.01544"
     inkscape:cy="250.10514"
     inkscape:window-x="0"
     inkscape:window-y="21"
     inkscape:window-maximized="0"
     inkscape:current-layer="layer5"
     fit-margin-top="0"
     fit-margin-left="0"
     fit-margin-right="0"
     fit-margin-bottom="0" /><g
     inkscape:groupmode="layer"
     id="layer5"
     inkscape:label="Símbolo"
     style="display:inline"
     transform="translate(12,8.84801)"><g
       id="g4331"><circle
         id="outside_6_"
         cx="104.545"
         cy="107.576"
         r="96.894997"
         style="fill:#ffffff" /><circle
         cx="104.545"
         cy="107.576"
         r="92.050003"
         id="circle4334"
         style="fill:#cc3366;fill-opacity:1" /><circle
         cx="104.545"
         cy="107.897"
         r="82.361"
         id="circle4336"
         style="fill:#ffffff" /><path
         d="m 83.728,125.596 c 7.93,-5.454 21.543,-12.043 24.169,-24.642 C 113.184,75.616 97.272,65.102 83.728,61.801 l 0,63.795 z m -7.521,8.151 0,-73.111 c -3.21,-0.206 -5.886,0 -7.57,0.505 -0.479,-1.06 2.473,-2.692 7.57,-4.259 l 0,-14.075 7.521,0 0,12.164 c 27.087,-5.682 81.097,-5.979 81.388,41.43 0.188,33.469 -58.385,28.36 -75.362,39.223 -18.474,11.782 -10.184,36.721 -10.184,36.721 0,0 -11.175,-23.357 -3.363,-38.598 z"
         id="path4338"
         inkscape:connector-curvature="0"
         style="fill:#cc3366;fill-opacity:1" /></g></g><g
     inkscape:groupmode="layer"
     id="layer4"
     inkscape:label="Corpo"
     style="display:inline"
     transform="translate(12,8.84801)"><g
       style="fill:none;stroke:#cc3366"
       transform="matrix(0.39,0,0,-0.39,-21.75,381.15199)"
       id="g4196"><circle
         style="stroke-width:90"
         cx="325"
         cy="700"
         r="255"
         id="circle4198" /><path
         style="stroke-width:100"
         inkscape:connector-curvature="0"
         d="m 325,0 0,445 M 95,230 l 460,0"
         id="path4200" /></g></g><g
     inkscape:groupmode="layer"
     id="layer6"
     inkscape:label="Punho"><path
       style="display:inline;fill:#ffffff;stroke:none"
       d="m 149.62615,120 0,-8.83166 c 6.86932,-3.04216 11.57945,-8.145 11.57945,-13.051546 0,-2.355122 -1.76631,-4.513991 -4.71013,-4.513991 -2.45352,0 -3.92537,0.686905 -6.37849,0.686905 -4.90678,0 -4.12158,-2.355123 -5.20098,-2.355123 -1.07952,0 -2.15905,1.275695 -2.15905,3.238297 0,2.943912 2.45325,4.415878 4.90651,4.415878 1.47198,0 1.96269,-0.588776 2.84584,-0.588776 0.58882,0 0.88317,0.09788 0.88317,0.392519 0,0.490667 -1.07954,1.373857 -2.45341,1.373857 -4.90619,0 -5.49531,-3.336459 -11.57944,-3.336459 -3.72859,0 -6.08379,2.355129 -6.08379,6.182259 0,4.80835 3.13996,6.86918 8.53731,7.55618 l 0,8.83166 z m 9.22433,-34.051428 c 0,-1.962617 -2.35501,-5.102781 -3.82698,-5.102781 -1.47227,0 -2.4534,8.242988 -2.4534,9.224296 0,1.471964 1.47185,3.238313 2.94381,3.238313 1.07954,0 3.33657,-5.397182 3.33657,-7.359828 z m -6.37864,-4.31774 c 0,-2.453276 -3.82682,-3.630831 -5.2007,-3.630831 -1.86471,0 -2.45351,4.906526 -2.45351,9.81307 0,1.962629 0.88316,4.514019 3.33667,4.514019 2.45327,0 4.31754,-5.495316 4.31754,-10.696258 z m -8.24274,-0.490654 c 0,-1.373847 -0.58898,-2.649543 -1.66852,-2.649543 -1.96254,0 -5.69154,2.453274 -5.69154,4.906547 0,4.906555 0.98141,9.813098 3.43481,9.813098 2.64948,0 3.92525,-9.322445 3.92525,-12.070102 z m -7.75265,12.070102 c 0,-4.415888 -0.58851,-9.61683 -2.06066,-9.61683 -1.96269,0 -4.41579,1.57008 -4.41579,3.72898 0,4.1215 1.96269,9.322415 4.9065,9.322415 1.07937,0 1.56995,-0.785067 1.56995,-3.434565 z"
       id="path4202"
       inkscape:connector-curvature="0" /></g></svg>