<?xml version="1.0" encoding="UTF-8" standalone="no"?>
<!-- Created with Inkscape (http://www.inkscape.org/) -->

<svg
   xmlns:dc="http://purl.org/dc/elements/1.1/"
   xmlns:cc="http://creativecommons.org/ns#"
   xmlns:rdf="http://www.w3.org/1999/02/22-rdf-syntax-ns#"
   xmlns:svg="http://www.w3.org/2000/svg"
   xmlns="http://www.w3.org/2000/svg"
   xmlns:sodipodi="http://sodipodi.sourceforge.net/DTD/sodipodi-0.dtd"
   xmlns:inkscape="http://www.inkscape.org/namespaces/inkscape"
   width="643.37146"
   height="639.24725"
   id="svg2"
   version="1.1"
   inkscape:version="0.48.5 r10040"
   sodipodi:docname="New document 1">
  <defs
     id="defs4" />
  <sodipodi:namedview
     id="base"
     pagecolor="#ffffff"
     bordercolor="#666666"
     borderopacity="1.0"
     inkscape:pageopacity="0.0"
     inkscape:pageshadow="2"
     inkscape:zoom="0.7"
     inkscape:cx="437.58244"
     inkscape:cy="362.86316"
     inkscape:document-units="px"
     inkscape:current-layer="layer1"
     showgrid="false"
     fit-margin-top="30"
     fit-margin-left="30"
     fit-margin-right="30"
     fit-margin-bottom="30"
     inkscape:window-width="1366"
     inkscape:window-height="702"
     inkscape:window-x="1600"
     inkscape:window-y="27"
     inkscape:window-maximized="1" />
  <metadata
     id="metadata7">
    <rdf:RDF>
      <cc:Work
         rdf:about="">
        <dc:format>image/svg+xml</dc:format>
        <dc:type
           rdf:resource="http://purl.org/dc/dcmitype/StillImage" />
        <dc:title></dc:title>
      </cc:Work>
    </rdf:RDF>
  </metadata>
  <g
     inkscape:label="Layer 1"
     inkscape:groupmode="layer"
     id="layer1"
     transform="translate(-58.314238,-172.51022)">
    <path
       style="fill:#4285f4;fill-opacity:1"
       inkscape:connector-curvature="0"
       d="m 376.87194,203.08651 c 1.68604,-0.47697 3.48301,-0.84302 5.20788,-0.32168 40.74792,10.66534 80.36442,25.27958 119.09908,41.75179 3.71595,1.65832 7.55947,3.03377 11.14786,4.9694 -2.96722,21.07001 -6.16183,42.11229 -8.84064,63.21558 3.4941,-1.63613 6.72754,-3.75478 10.11072,-5.60721 17.54263,-9.95543 35.48458,-19.21758 53.7704,-27.74209 1.59731,-0.66554 3.4331,-2.01882 5.15242,-0.8763 30.5762,15.28533 60.30937,32.19569 89.74305,49.56084 3.1447,1.90234 6.35595,3.68822 9.423,5.71813 -9.52283,6.92166 -19.18985,13.65474 -28.61839,20.71505 -30.48746,22.67287 -59.97106,46.699 -88.47297,71.82328 -1.6805,1.74706 -4.13747,0.27177 -6.12301,-0.006 -50.28739,-11.56937 -100.9741,-21.36396 -151.93258,-29.46696 -5.10251,-0.68218 -10.16064,-1.75814 -15.29642,-2.14638 1.85798,1.80252 4.0099,3.25007 6.11746,4.73646 34.83568,25.40159 69.13337,51.54637 102.57695,78.75603 1.02051,0.84302 2.01882,1.71377 3.02823,2.57898 -3.92671,4.1541 -8.34148,7.80905 -12.36248,11.86887 -32.66157,31.10863 -65.36196,62.18953 -98.00689,93.32589 -0.7321,0.64336 -1.47529,1.27563 -2.21848,1.91344 -2.72873,-2.10201 -5.02485,-4.68099 -7.49846,-7.05477 -56.65442,-54.56905 -113.84128,-108.63895 -173.24108,-160.23524 0.99277,-2.4015 2.15747,-4.72536 3.37209,-7.02149 15.56818,-30.52628 31.33603,-60.97491 48.57361,-90.60271 1.73596,-3.08923 3.81579,-5.9899 5.28553,-9.22333 -2.88957,1.26453 -5.55729,2.96167 -8.29157,4.5257 -31.79081,18.3191 -62.97709,37.66978 -93.65312,57.79694 -1.65831,1.03714 -3.18352,2.4126 -5.1025,2.95058 -1.83025,-1.05932 -3.34436,-2.57344 -5.00267,-3.8657 -16.41675,-13.14449 -33.4214,-25.54025 -50.753273,-37.44239 -1.702683,-1.15916 -3.388728,-2.3405 -5.035949,-3.58285 3.494106,-2.57343 7.409722,-4.48687 11.092402,-6.77745 49.1005,-28.94007 99.3768,-55.99998 151.3946,-79.34393 2.17966,-1.00941 4.40368,-2.20184 6.87729,-2.1852 36.45516,0.0388 72.91033,1.44756 109.26567,4.12637 3.65494,0.20521 7.2988,0.75983 10.96483,0.58235 -1.04268,-0.63781 -2.10755,-1.2368 -3.22788,-1.71932 -21.54144,-8.80182 -43.40456,-16.81053 -65.47843,-24.16479 3.3499,-1.55848 6.93275,-2.50688 10.40467,-3.73814 18.71842,-6.34485 37.46457,-12.63424 56.54905,-17.79221 m 2.02436,48.52925 c -31.21956,13.79339 -61.81794,28.98443 -91.86725,45.1627 -9.75022,5.36317 -19.60027,10.57105 -29.16746,16.25591 2.37932,1.56957 4.85293,2.98385 7.30435,4.43696 20.7927,12.44567 41.14725,25.6068 61.23004,39.15616 18.24699,12.23492 36.12239,25.01336 54.0588,37.69198 2.94503,-1.88017 5.69595,-4.03209 8.55224,-6.03982 34.83013,-24.90798 70.24261,-49.06722 107.0361,-71.00799 2.35713,-1.38655 4.79746,-2.65663 6.96603,-4.34822 -38.69029,-23.46042 -79.19973,-43.89816 -120.92933,-61.36869 -1.02605,-0.49361 -2.17966,-0.45479 -3.18352,0.061 z"
       id="path3023" />
    <path
       style="fill:#4285ff;fill-opacity:0.94117647"
       inkscape:connector-curvature="0"
       d="m 367.93701,273.53434 c 13.7823,-1.27008 27.81973,-0.41042 41.23044,3.10587 8.60216,2.24066 16.95474,5.64603 24.3811,10.56551 5.2467,3.51074 10.03307,7.88115 13.27205,13.34415 3.34991,5.60721 4.84738,12.51778 3.17797,18.92364 -1.8247,7.57056 -7.06031,13.81558 -13.06684,18.53539 -9.1956,7.10468 -20.26027,11.41408 -31.53015,13.92651 -18.52985,4.07646 -38.0802,3.67158 -56.3993,-1.29781 -11.12567,-3.08369 -21.97404,-8.12518 -30.4209,-16.15053 -5.64048,-5.6183 -9.97761,-13.2166 -9.61711,-21.39724 0.20521,-8.68535 5.402,-16.40566 11.8245,-21.89085 13.16113,-11.0092 30.35435,-15.88986 47.14824,-17.66464 z"
       id="path3025" />
    <path
       style="fill:#ea433f;fill-opacity:0.94117647"
       inkscape:connector-curvature="0"
       d="m 88.319824,615.32441 c 7.332076,-0.3605 14.675246,-0.0444 22.012866,-0.15529 5.35208,-0.0832 10.90937,-0.12202 15.91759,2.05209 4.34822,1.81916 8.06972,5.44637 9.38417,10.04972 1.86907,6.2062 1.10369,13.54936 -3.17243,18.61304 -2.25175,2.73428 -5.6072,4.11528 -8.80736,5.402 1.7526,0.97059 3.71595,1.8247 4.89729,3.52738 1.69159,2.44033 2.65109,5.29108 3.5773,8.09191 2.47361,7.99207 5.03595,15.95087 7.54283,23.93185 -5.88451,0.061 -11.76903,0.0277 -17.65355,0.0222 -2.09092,-6.50569 -3.7936,-13.12785 -5.75695,-19.66682 -0.89849,-2.76201 -1.67496,-5.80687 -3.91007,-7.82014 -1.94672,-1.65277 -4.65881,-1.43092 -7.04368,-1.44201 -0.13311,9.63929 0.0111,19.28413 -0.0555,28.92343 -5.64603,0.006 -11.292061,0.061 -16.938092,-0.0333 0.02218,-23.83202 0.01664,-47.66404 0.0055,-71.49606 m 16.361282,12.10181 c -0.11092,6.12301 -0.16084,12.2571 0.0277,18.38011 3.70486,-0.0388 7.78132,0.39378 11.06467,-1.67496 4.54234,-3.01158 5.27444,-10.23828 1.68605,-14.226 -3.38873,-3.24452 -8.48569,-2.6289 -12.77845,-2.47915 z"
       id="path3027" />
    <path
       style="fill:#ea433f;fill-opacity:0.94117647"
       inkscape:connector-curvature="0"
       d="m 271.82137,615.26895 c 5.00268,-0.17748 10.01644,-0.15529 15.01911,-0.0111 0.12202,4.42587 0.22185,8.85728 -0.061,13.2776 -4.98048,0.006 -9.95542,-0.006 -14.93591,0.006 -0.0777,-4.42587 -0.0555,-8.84619 -0.0222,-13.27206 z"
       id="path3029" />
    <path
       style="fill:#fbbc05;fill-opacity:1"
       inkscape:connector-curvature="0"
       d="m 393.0502,615.25786 c 13.21659,-0.13865 26.43873,-0.1442 39.65532,0 0.14975,4.11528 0.16084,8.23611 -0.0111,12.35693 -7.8035,0.2163 -15.61255,-0.006 -23.4216,0.0943 -0.15529,5.51292 -0.11092,11.03693 -0.0277,16.5554 7.53174,0.16639 15.06902,-0.0555 22.60076,0.0943 -0.006,4.17074 -0.006,8.34148 0,12.51222 -7.53174,0.14975 -15.06902,-0.0721 -22.60076,0.0943 -0.1442,9.96097 0.0111,19.92749 -0.061,29.88847 -5.37426,0.0222 -10.74853,0.0277 -16.1228,-0.006 -0.23294,-8.65207 -0.0277,-17.31523 -0.0943,-25.97285 0.061,-15.20768 -0.12202,-30.41536 0.0832,-45.61749 z"
       id="path3031" />
    <path
       style="fill:#fbbc05;fill-opacity:1"
       inkscape:connector-curvature="0"
       d="m 510.86256,615.26895 c 5.00268,-0.17748 10.01089,-0.15529 15.01911,-0.0111 0.19967,16.31137 0.0222,32.62829 0.0832,48.94521 0.0721,7.54283 -0.18858,15.09675 0.23294,22.63404 -4.76419,0.0444 -9.52837,0.0721 -14.29256,-0.0166 -0.24403,-2.38487 -0.43815,-4.77528 -0.61563,-7.16014 -1.58621,2.08537 -3.08923,4.34822 -5.33544,5.79023 -3.40537,2.21848 -7.7314,2.5568 -11.64702,1.81361 -4.70872,-0.97059 -8.39695,-4.65881 -10.49341,-8.84065 -2.79528,-5.57393 -3.62167,-11.92432 -3.49965,-18.09724 -0.0444,-6.36149 1.09815,-13.08349 4.98049,-18.28582 4.29275,-5.80133 12.83945,-7.25998 19.22867,-4.35377 2.73982,1.19798 4.50351,3.71041 6.24502,6.02872 0.20521,-9.47846 -0.006,-18.96246 0.0943,-28.44646 M 500.46346,647.204 c -2.49024,1.18688 -3.51629,4.03209 -3.97108,6.57779 -0.59899,3.80469 -0.44924,7.67594 -0.38269,11.51391 0.13866,3.10033 0.5879,6.36149 2.35714,8.99594 1.69714,2.57898 5.74032,3.23343 8.12518,1.24234 1.72487,-1.40873 2.68436,-3.51629 3.23344,-5.62384 1.23125,-4.91948 1.20907,-10.08299 0.39378,-15.06348 -0.39933,-2.2573 -1.08706,-4.57561 -2.60672,-6.34485 -1.73596,-2.00218 -4.80855,-2.24067 -7.14905,-1.29781 z"
       id="path3033" />
    <path
       style="fill:#fbbc05;fill-opacity:1"
       inkscape:connector-curvature="0"
       d="m 655.51299,615.26895 c 4.99712,-0.16638 9.9998,-0.16638 15.00247,0 0.19411,13.3497 0.0222,26.70495 0.0832,40.0602 -0.061,10.5045 0.10538,21.01455 -0.0777,31.51905 -5.00821,0.0388 -10.01643,0.0333 -15.0191,0 -0.18303,-16.0507 -0.0222,-32.10695 -0.0776,-48.15765 0.061,-7.80905 -0.11647,-15.61809 0.0887,-23.4216 z"
       id="path3035" />
    <path
       style="fill:#ea433f;fill-opacity:0.94117647"
       inkscape:connector-curvature="0"
       d="m 297.95507,626.71631 c 4.89174,-1.48084 9.75021,-3.08369 14.63642,-4.58671 0.0666,4.97494 -0.11647,9.95543 0.0721,14.93037 3.21679,0.061 6.43359,0.0444 9.65038,0.0499 0.18857,3.48855 0.18303,6.98821 0.006,10.47677 -3.21125,0.0998 -6.4225,0.0776 -9.63375,0.0776 -0.23294,7.17124 -0.0222,14.35357 -0.11647,21.53035 0.0777,2.36268 0.0111,5.37981 2.2684,6.82182 2.42923,1.32555 5.27443,0.30504 7.82014,-0.11092 0.0499,3.68268 0.0333,7.36535 0.0111,11.04803 -3.99881,0.79311 -8.09745,0.721 -12.15172,0.59344 -3.71041,-0.1442 -7.53729,-1.54184 -9.95543,-4.45914 -2.28503,-2.78419 -3.01713,-6.47242 -3.12251,-9.98316 -0.13311,-8.47459 0.1442,-16.95473 -0.12202,-25.42378 -3.47192,-0.0555 -6.94384,-0.0666 -10.41021,0.0333 -0.0277,13.04466 0.1442,26.09487 -0.0777,39.13398 -5.00822,0.0388 -10.01089,0.0277 -15.01356,0.006 -0.0166,-16.57759 -0.0166,-33.16073 0,-49.73832 8.66871,-0.0721 17.34296,0.0832 26.01167,-0.061 0.0777,-3.44973 -0.0111,-6.89392 0.12757,-10.33811 z"
       id="path3037" />
    <path
       style="fill:#fbbc0f;fill-opacity:0.94117647"
       inkscape:connector-curvature="0"
       d="m 150.98633,638.82921 c 4.90284,-2.74537 10.83173,-3.10033 16.267,-2.04655 4.8141,0.93176 9.25106,3.86015 11.74131,8.12518 3.81578,6.25611 4.15965,13.84886 3.89343,20.98127 -9.76686,0.23294 -19.54481,-0.0776 -29.31166,0.1442 0.17747,3.24453 1.3089,6.60553 3.99326,8.63544 3.3499,2.78974 7.96989,2.68436 12.08517,2.5457 3.52738,-0.0499 6.9993,-0.74319 10.37139,-1.73596 0.0555,3.81579 0.23849,7.62603 0.18302,11.44181 -4.03208,0.67664 -8.13072,0.68218 -12.20718,0.78202 -5.81796,-0.006 -11.92433,-0.19967 -17.18767,-2.98941 -5.37982,-2.71763 -9.09577,-8.05308 -10.51005,-13.83776 -1.70268,-6.89393 -1.50302,-14.39239 1.22016,-21.00346 1.86353,-4.55343 5.10805,-8.65207 9.46182,-11.04248 m 5.12469,9.0403 c -2.22403,2.70655 -2.37377,6.39477 -2.47915,9.73358 5.20233,0.23294 10.41021,0.1553 15.61255,0.0499 -0.16084,-3.37209 -0.37714,-7.07141 -2.63445,-9.78904 -2.49579,-3.2168 -8.00871,-3.21125 -10.49895,0.006 z"
       id="path3039" />
    <path
       style="fill:#4285f4;fill-opacity:1"
       inkscape:connector-curvature="0"
       d="m 193.88618,642.38432 c 4.18184,-4.01545 10.02198,-5.91225 15.73457,-6.10636 4.42587,-0.12757 8.84619,0.27176 13.23878,0.77646 0.0388,3.81579 -0.22185,7.63157 -0.67664,11.42517 -4.33158,-0.34941 -8.86837,-1.20907 -13.08903,0.23849 -4.27612,1.59731 -6.45023,6.22284 -6.86065,10.52114 -0.61008,5.12469 -0.0166,11.22551 4.3815,14.61424 4.64771,3.6383 10.94265,2.42923 16.37238,1.9578 0.39933,3.69377 0.41596,7.42082 0.37714,11.13677 -5.26334,1.08151 -10.67089,0.85412 -16.00078,0.58235 -4.90284,-0.26067 -9.83342,-2.00772 -13.42181,-5.44082 -5.49628,-5.06368 -7.7314,-12.80617 -7.61493,-20.10497 -0.0998,-7.14351 2.24621,-14.63087 7.55947,-19.60027 z"
       id="path3041" />
    <path
       style="fill:#34a85f;fill-opacity:0.94117647"
       inkscape:connector-curvature="0"
       d="m 228.48892,645.36818 c 3.17797,-4.8973 8.6077,-8.24166 14.40348,-8.91275 4.04872,-0.48806 8.26384,-0.17193 12.10181,1.26454 4.27612,1.60285 7.74249,5.02485 9.63374,9.15677 2.75092,5.9067 3.1447,12.58987 2.78974,19.00683 -9.72249,0.2163 -19.45606,-0.0166 -29.1841,0.0998 0.0444,2.68991 0.78756,5.42418 2.60117,7.47628 1.90789,2.17411 4.73645,3.41091 7.59275,3.66603 5.40754,0.41042 10.90382,-0.0111 16.09507,-1.61949 0.18857,3.81579 0.34386,7.63157 0.17747,11.4529 -5.93997,0.8042 -11.96869,0.83748 -17.9475,0.60454 -5.69594,-0.19412 -11.53609,-1.99663 -15.7512,-5.95662 -4.0931,-3.77141 -6.20065,-9.23997 -6.87729,-14.67524 -0.97613,-7.37645 0.12202,-15.30751 4.36486,-21.56362 m 11.8134,2.95612 c -1.86907,2.72318 -2.09646,6.1341 -2.06873,9.3398 5.14133,0.11092 10.2882,0.11647 15.42953,-0.006 0.0444,-3.32772 -0.26622,-6.89947 -2.31831,-9.66148 -2.59008,-3.45528 -8.70199,-3.37208 -11.04249,0.32723 z"
       id="path3043" />
    <path
       style="fill:#4285f4;fill-opacity:1"
       inkscape:connector-curvature="0"
       d="m 330.50016,637.14871 c 7.85897,-0.42706 15.80112,-1.58621 23.6379,-0.2995 4.14302,0.74319 8.49678,2.46806 10.92047,6.10082 2.15747,3.13361 2.67327,7.02149 2.80083,10.73745 0.20521,11.04802 -0.22739,22.10715 0.27177,33.15517 -4.55343,0.0388 -9.10132,0.061 -13.6492,-0.0111 -0.20521,-1.85797 -0.41597,-3.71041 -0.66555,-5.55729 -1.76369,1.59731 -3.45528,3.35545 -5.59611,4.45914 -3.93226,2.01328 -8.6077,2.35159 -12.86718,1.33664 -4.93057,-1.20907 -9.02367,-5.33544 -10.08854,-10.31593 -1.05378,-4.73646 -0.48252,-10.16064 2.70655,-13.98752 2.9173,-3.50519 7.35426,-5.28552 11.72466,-6.14519 4.69763,-1.0205 9.52837,-0.79865 14.30365,-0.84856 -0.006,-2.4126 -0.31613,-5.04705 -2.13529,-6.82183 -2.30722,-2.50133 -6.01762,-2.29058 -9.12904,-2.17966 -4.24839,0.0943 -8.34148,1.33109 -12.26265,2.87848 -0.0887,-4.16519 -0.12756,-8.33594 0.0277,-12.50113 m 11.18669,28.23015 c -3.37209,2.21848 -4.06537,7.34317 -1.81361,10.56551 3.15024,3.59949 9.57829,2.41815 12.02971,-1.43646 2.29612,-3.38318 2.22957,-7.65376 2.02436,-11.56383 -4.1541,-0.0666 -8.66871,0.0555 -12.24046,2.43478 z"
       id="path3045" />
    <path
       style="fill:#fbbc05;fill-opacity:1"
       inkscape:connector-curvature="0"
       d="m 438.34601,645.0354 c 3.30553,-4.88065 8.86837,-8.11409 14.7307,-8.64652 4.55898,-0.42151 9.36753,0.0499 13.47172,2.20739 3.53848,1.85243 6.29494,5.01931 7.89224,8.65761 2.60672,5.81797 2.95613,12.34584 2.6289,18.62969 -9.79459,0.20521 -19.60027,0.0111 -29.39485,0.0832 0.39932,2.77865 1.0205,5.71813 3.06704,7.79241 1.91344,1.99109 4.60335,3.12251 7.33208,3.36654 5.40754,0.41597 10.89828,-0.0166 16.10062,-1.61394 0.17193,3.81024 0.33277,7.62602 0.16638,11.44735 -6.12855,0.82084 -12.34029,0.85412 -18.50767,0.57126 -5.88451,-0.28285 -11.89659,-2.37377 -16.00633,-6.72754 -3.7104,-3.87679 -5.5462,-9.17341 -6.11745,-14.42566 -0.88185,-7.33762 0.32722,-15.19659 4.63662,-21.34178 m 11.83004,2.96167 c -2.06318,2.76201 -2.35159,6.33376 -2.30167,9.66703 5.14133,0.11092 10.29374,0.11092 15.43507,-0.006 0.0277,-3.32772 -0.26622,-6.89947 -2.32386,-9.65593 -2.49579,-3.37209 -8.32484,-3.41646 -10.80954,-0.006 z"
       id="path3047" />
    <path
       style="fill:#fbbc05;fill-opacity:1"
       inkscape:connector-curvature="0"
       d="m 535.65408,643.64331 c 3.19461,-3.87125 7.83677,-6.53897 12.8339,-7.14905 5.37981,-0.69328 11.21442,-0.0499 15.81221,3.03377 4.10419,2.7731 6.72754,7.30989 7.87561,12.06853 1.26453,4.64771 1.29226,9.50618 1.1647,14.29255 -9.7835,0.20521 -19.57808,-0.0277 -29.36158,0.10538 0.20521,3.25562 1.3089,6.64989 4.02099,8.6798 3.34991,2.82302 7.98653,2.67327 12.10736,2.54016 3.52183,-0.0444 6.9993,-0.74319 10.37139,-1.73596 0.0499,3.81579 0.17193,7.63157 0.13311,11.4529 -6.04536,0.85412 -12.19055,0.89294 -18.27473,0.59345 -5.76804,-0.29395 -11.73576,-2.1131 -15.87877,-6.30049 -4.8862,-4.84737 -6.79409,-11.9576 -6.77745,-18.67959 -0.16084,-6.71091 1.63058,-13.67693 5.97326,-18.90145 m 10.90937,4.22066 c -2.21293,2.73427 -2.4126,6.42249 -2.61781,9.78349 5.24116,0.13311 10.48232,0.14975 15.72348,-0.0111 -0.25513,-3.35545 -0.40487,-7.04367 -2.61226,-9.7724 -2.49579,-3.19461 -8.02535,-3.26672 -10.49341,0 z"
       id="path3049" />
    <path
       style="fill:#fbbc05;fill-opacity:1"
       inkscape:connector-curvature="0"
       d="m 611.24323,637.13762 c 5.50737,-0.3716 11.01475,-0.83193 16.53876,-0.89294 5.59612,0.15529 11.77458,0.72655 16.16717,4.59225 3.74923,3.31108 4.61999,8.58552 4.70873,13.33861 0.13865,10.89274 -0.13311,21.79102 0.17747,32.68375 -4.54233,0.0111 -9.08467,0.0444 -13.62701,-0.0333 -0.16638,-2.01327 -0.36605,-4.021 -0.57126,-6.02872 -2.11864,2.66772 -4.803,4.99712 -8.14182,5.95107 -5.51292,1.71377 -12.20163,1.05378 -16.52767,-3.05596 -4.00436,-3.69377 -5.0415,-9.67257 -4.07091,-14.84163 0.75983,-4.16519 3.56621,-7.81459 7.33207,-9.72248 6.55561,-3.55512 14.22601,-3.38873 21.4638,-3.34991 0.0887,-2.6899 -0.50471,-5.63494 -2.68991,-7.41527 -2.4126,-1.93562 -5.72922,-1.6694 -8.62989,-1.58066 -4.20956,0.12201 -8.27493,1.32554 -12.15727,2.87847 0.0222,-4.17628 -0.0111,-8.35257 0.0277,-12.52331 m 11.76903,27.83082 c -3.87125,2.06319 -4.86402,7.83124 -2.19629,11.20333 3.25007,3.24452 9.36753,2.11865 11.79122,-1.63059 2.30167,-3.36099 2.27948,-7.59274 2.21293,-11.49727 -3.99326,-0.2884 -8.21947,-0.0111 -11.80786,1.92453 z"
       id="path3051" />
    <path
       style="fill:#fbbc05;fill-opacity:1"
       inkscape:connector-curvature="0"
       d="m 576.82906,637.11543 c 4.55897,-0.0333 9.1124,-0.0222 13.67138,-0.006 0.12202,2.66217 0.29395,5.32435 0.71546,7.96434 1.93562,-2.19075 3.29444,-5.03595 5.9788,-6.45023 3.02823,-1.73042 6.62216,-1.57512 9.99425,-1.53075 0.0222,4.19847 0.0222,8.40249 0,12.60096 -3.66603,0.1442 -7.87005,-0.67109 -10.97038,1.78588 -3.28335,2.61226 -3.69377,7.13796 -3.93225,11.03139 -0.18303,8.11409 0.006,16.22818 -0.0777,24.34227 -5.00267,0.0222 -10.01089,0.0277 -15.01356,0 -0.37714,-16.57759 0.28285,-33.17182 -0.36605,-49.73832 z"
       id="path3053" />
    <path
       style="fill:#666666"
       d="m 561.91962,781.2365 c -3.77317,-1.01603 -6.03574,-2.7014 -7.12401,-5.30667 -1.6359,-3.91623 0.41672,-8.31098 4.96773,-10.63612 1.69338,-0.86516 4.91182,-1.69184 8.25769,-2.12108 l 1.67123,-0.21439 -0.70022,-1.34111 c -0.4781,-0.91569 -0.65111,-1.81417 -0.54536,-2.83246 l 0.15482,-1.49135 -2.04902,-0.18581 c -7.07887,-0.64188 -11.08762,-6.64709 -8.69898,-13.03129 1.01109,-2.70239 2.86327,-4.72204 5.52774,-6.02755 3.22039,-1.57791 5.3667,-1.85123 13.67059,-1.74088 l 7.38144,0.0981 -2.07413,1.17542 c -1.40606,0.79684 -2.55089,1.17543 -3.55445,1.17543 l -1.4803,0 1.30735,1.52738 c 2.38181,2.7826 2.95552,7.01325 1.39912,10.31708 -0.35147,0.74605 -1.72201,2.41433 -3.04561,3.70731 -1.32364,1.29296 -2.50739,2.64597 -2.63053,3.00667 -0.22973,0.67292 0.64883,2.78003 1.15918,2.78003 0.70873,0 6.0129,5.357 6.6137,6.67959 0.92895,2.04502 0.89466,5.52611 -0.0747,7.58843 -1.57239,3.34509 -5.74783,6.20238 -10.29093,7.04223 -2.87165,0.53085 -7.5412,0.45069 -9.84233,-0.16895 z m 12.24074,-2.88925 c 2.78951,-0.98419 4.30635,-2.98107 4.30404,-5.6661 -0.004,-2.063 -0.90826,-3.45932 -3.68497,-5.67653 -2.1647,-1.72851 -2.3928,-1.8222 -4.46568,-1.83381 -4.8271,-0.0271 -8.75751,1.77048 -9.99673,4.57193 -1.56146,3.52996 0.65393,7.20612 5.19735,8.62429 2.14904,0.6708 6.71829,0.66035 8.64599,-0.0198 z m -1.45326,-24.09799 c 0.76584,-0.43042 1.64245,-1.30946 1.94802,-1.95342 1.12273,-2.36602 0.42746,-7.33601 -1.44017,-10.29453 -1.07571,-1.70401 -2.42806,-2.77063 -4.17742,-3.29475 -1.21159,-0.363 -1.57606,-0.30967 -3.09088,0.45224 -2.48103,1.24789 -3.11917,2.61299 -2.93981,6.2888 0.34949,7.16219 5.04181,11.41984 9.70026,8.80166 z m -156.72115,19.00138 c -0.51481,-0.15324 -0.63292,-0.60847 -0.63292,-2.43945 l 0,-2.25106 2.3389,0.14894 c 3.06413,0.19511 5.03393,-0.86134 6.40102,-3.43302 l 0.92762,-1.745 -5.55646,-13.56259 c -3.05606,-7.45942 -5.55676,-13.60986 -5.55711,-13.66762 -3.6e-4,-0.0578 1.32528,-0.0578 2.94583,0 l 2.94649,0.10504 3.83121,10.18484 c 2.10716,5.60166 3.91964,10.13018 4.02772,10.06338 0.10809,-0.0668 1.57117,-4.69067 3.25129,-10.27525 l 3.05477,-10.15381 2.81027,0 c 1.54565,0 2.81027,0.0485 2.81027,0.10781 0,0.57371 -9.87395,29.42964 -10.47016,30.5983 -1.14545,2.24528 -3.57103,4.74054 -5.39907,5.55416 -1.5563,0.69268 -6.37194,1.16949 -7.72967,0.76533 z m 49.22226,-9.31177 c -9.03703,-2.67509 -14.47242,-10.66014 -13.94094,-20.48045 0.70263,-12.98264 12.15318,-21.45632 26.42725,-19.55678 4.04912,0.53883 8.21512,1.84701 10.50254,3.29794 l 1.77609,1.12658 -2.31859,2.31484 c -1.57791,1.57535 -2.70571,2.39164 -3.53044,2.55526 l -1.21186,0.24043 0.62807,-1.21456 0.62807,-1.21455 -1.40539,-1.23562 c -0.77297,-0.6796 -2.46046,-1.73587 -3.74998,-2.34727 -4.72473,-2.24015 -11.3281,-1.6055 -15.36855,1.47706 -2.43842,1.86033 -4.36126,4.4965 -5.34167,7.32329 -1.19933,3.45797 -1.12365,9.32215 0.16447,12.74578 2.52478,6.71045 7.12774,11.11194 13.35347,12.76897 2.5688,0.68371 7.65996,0.6679 10.01373,-0.0311 l 1.87398,-0.55651 0,-4.3791 0,-4.37908 -4.15919,0.24865 c -2.28756,0.13677 -4.15919,0.17465 -4.15919,0.0842 0,-0.0904 1.04364,-0.74809 2.31919,-1.46142 l 2.3192,-1.29696 5.99919,0 c 3.29956,0 5.99919,0.10444 5.99919,0.2321 0,0.12765 -0.48825,0.69869 -1.085,1.26898 l -1.08501,1.03689 0,4.83481 0,4.8348 -3.45607,0.79862 c -9.00204,2.08018 -16.30072,2.41225 -21.19256,0.9642 z m 142.19104,-0.08 c -2.27942,-0.60588 -5.34456,-2.57224 -6.61904,-4.24627 -4.71129,-6.18836 -4.47399,-15.2707 0.52662,-20.15468 4.73635,-4.62588 12.89694,-5.2817 17.13314,-1.37688 1.43778,1.32527 3.06439,3.93262 3.06439,4.91195 0,0.21516 -3.13296,1.6478 -6.96213,3.18364 -5.18334,2.07897 -7.53828,2.84024 -9.21715,2.97954 -2.21605,0.18388 -2.2511,0.20344 -2.02918,1.13262 0.53086,2.22263 2.34142,5.53182 3.85449,7.04488 2.3536,2.3536 4.24343,3.21156 7.50316,3.40638 2.33663,0.13965 3.06916,0.0278 5.04586,-0.77065 1.27181,-0.51371 2.40148,-0.84492 2.51038,-0.73602 0.27483,0.27483 -2.78402,2.90797 -4.32212,3.7206 -2.77748,1.4674 -7.00124,1.83181 -10.48842,0.90489 z m 1.67985,-17.8213 c 5.57644,-2.41578 5.73756,-2.51602 5.84943,-3.63965 0.0953,-0.95703 -0.15512,-1.42562 -1.45838,-2.72883 -1.94638,-1.9464 -3.57965,-2.35645 -5.88268,-1.47692 -2.99939,1.14548 -4.88991,4.29555 -4.88991,8.14781 0,0.96396 0.30315,2.1818 0.54312,2.1818 0.0573,0 2.68452,-1.1179 5.83842,-2.48421 z m -212.35203,17.45571 c -0.79566,-0.29111 -2.05698,-1.01969 -2.80292,-1.61907 l -1.35626,-1.08977 0,1.28289 0,1.28288 -2.71253,0 -2.71251,0 0,-18.80679 0,-18.80679 2.71251,0 2.71253,0 0,6.57309 0,6.57309 0.81826,-0.76872 c 2.65044,-2.48996 8.66621,-3.24424 12.45997,-1.56226 4.17801,1.85233 6.55434,5.94883 6.88599,11.8706 0.55108,9.83968 -3.93367,15.70395 -11.94982,15.62563 -1.4347,-0.014 -3.25954,-0.26367 -4.05522,-0.55478 z m 6.16334,-4.43958 c 3.20755,-1.45699 4.69374,-4.84967 4.43959,-10.13471 -0.27772,-5.775 -2.83265,-8.71912 -7.56051,-8.71221 -1.89695,0.003 -2.65398,0.1955 -4.15902,1.05874 -2.92094,1.67536 -3.04258,2.01507 -3.04258,8.49679 l 0,5.60601 1.13869,1.2969 c 2.44697,2.78694 6.17317,3.75604 9.18383,2.38848 z m 100.70985,4.6996 c -3.92795,-1.28345 -7.09007,-4.02106 -8.82063,-7.63647 -1.03854,-2.16966 -1.12527,-2.64355 -1.12527,-6.14838 0,-3.36318 0.11087,-4.03405 0.9693,-5.86557 2.66389,-5.68359 8.39385,-8.89971 15.1679,-8.51348 5.57773,0.31803 9.69107,3.00915 12.0277,7.86901 1.04492,2.17328 1.13029,2.63769 1.13029,6.14838 0,3.51576 -0.0852,3.97733 -1.14808,6.22096 -1.46372,3.08971 -3.83437,5.45825 -6.91688,6.91072 -2.20402,1.03853 -2.78365,1.14954 -6.4018,1.22609 -2.1881,0.0463 -4.38523,-0.0488 -4.88253,-0.21126 z m 7.77466,-2.01214 c 2.34248,-0.70498 4.39011,-2.74261 5.07555,-5.05075 1.05373,-3.54831 0.31044,-9.77348 -1.61841,-13.55434 -2.82651,-5.54042 -8.21299,-7.09687 -12.45394,-3.59862 -2.05477,1.69494 -2.73981,3.48713 -2.74293,7.17599 -0.004,5.2587 1.44577,9.62206 4.2178,12.69037 1.44142,1.59547 2.26859,2.13024 3.90646,2.5255 1.60556,0.38748 1.72316,0.38135 3.61547,-0.18815 z m 23.43232,1.82651 c -3.86644,-1.25609 -6.67918,-3.81127 -8.55088,-7.76789 -1.01659,-2.14897 -1.13107,-2.73042 -1.11255,-5.65049 0.0153,-2.4135 0.21515,-3.74303 0.77297,-5.14265 2.24916,-5.64319 7.11179,-9.03146 13.50866,-9.41279 6.58429,-0.39251 11.50121,2.41023 14.14694,8.064 3.29089,7.03248 0.18765,15.6257 -6.87752,19.04462 -2.20004,1.06462 -2.74867,1.17311 -6.3852,1.26251 -2.63356,0.0647 -4.49353,-0.0695 -5.50242,-0.39731 z m 9.67385,-2.39372 c 2.82289,-1.44013 4.16165,-4.2649 4.11081,-8.67381 -0.12648,-10.96867 -6.80055,-17.62932 -13.6454,-13.61797 -3.40047,1.99281 -4.59566,6.2959 -3.36334,12.10918 1.89385,8.934 7.17414,13.10266 12.89793,10.1826 z m 41.55507,1.12584 c 0.73317,-1.02963 0.74796,-1.42336 0.74796,-19.8918 l 0,-18.84137 -2.26042,-0.0175 -2.26044,-0.0175 2.35085,-1.23074 c 2.2771,-1.19214 2.48416,-1.2313 6.60046,-1.2483 2.33729,-0.01 4.24961,0.0927 4.24961,0.22737 0,0.1347 -0.52895,0.6864 -1.17542,1.22601 l -1.17543,0.98109 -0.1,18.44959 c -0.11147,20.57909 -0.234,19.57037 2.38621,19.64137 0.73173,0.0198 1.73732,0.15292 2.23461,0.29577 l 0.90418,0.25971 -1.15745,0.60841 c -0.93644,0.4922 -2.20159,0.60839 -6.6251,0.60839 l -5.46763,0 z m 37.99988,-23.90475 c 0,-1.3663 -0.13262,-1.80834 -0.54251,-1.80834 -0.29837,0 -0.5425,-0.16275 -0.5425,-0.36167 0,-0.19891 0.73238,-0.36166 1.62751,-0.36166 0.89513,0 1.62751,0.16275 1.62751,0.36166 0,0.19892 -0.24412,0.36167 -0.5425,0.36167 -0.40988,0 -0.54251,0.44204 -0.54251,1.80834 0,1.36632 -0.13262,1.80835 -0.5425,1.80835 -0.40987,0 -0.5425,-0.44203 -0.5425,-1.80835 z m 2.53168,-0.36166 c 0,-2.57259 0.75397,-2.98541 1.48625,-0.81375 l 0.45729,1.35625 0.33002,-1.35625 c 0.54175,-2.22653 1.34313,-1.741 1.34313,0.81375 0,1.20556 -0.16072,2.17001 -0.36167,2.17001 -0.19891,0 -0.37451,-0.44756 -0.3902,-0.99459 l -0.0286,-0.99459 -0.36327,0.99459 c -0.477,1.30603 -0.83787,1.25578 -1.29875,-0.18083 l -0.37703,-1.17543 -0.037,1.17543 c -0.067,2.13444 -0.76027,1.22757 -0.76027,-0.99459 z"
       id="path3890"
       inkscape:connector-curvature="0"
       sodipodi:nodetypes="ssssccccsssscsscscsssccssscsssssssssssssscsscscscscscssssssssscsscccssssssscccssscssscccssssscssssssscsssccsssssscccccccccccssscssscsscssssssssssssssssssssssssssssssssssssscccsssscscsccscssssssssssscccssccsccss" />
  </g>
</svg>
